<?xml version="1.0" encoding="utf-8"?>
<!-- Generator: Adobe Illustrator 26.2.1, SVG Export Plug-In . SVG Version: 6.00 Build 0)  -->
<svg version="1.1" id="Vektorebene_00000028327000768690450060000004235849954676697473_"
	 xmlns="http://www.w3.org/2000/svg" xmlns:xlink="http://www.w3.org/1999/xlink" x="0px" y="0px" viewBox="0 0 720.4 157.58"
	 style="enable-background:new 0 0 720.4 157.58;" xml:space="preserve">
<style type="text/css">
	.st0{fill:#FFFFFF;}
	.st1{fill:#FF0054;}
</style>
<g>
	<path class="st0" d="M40.28,134.32c-1.56,0-3.16-0.38-4.75-1.13c-2.59-1.37-4.27-3.58-4.88-6.4c-1.02-4.67,1.05-10.05,3.56-13.31
		c7.26-9.72,17.13-17.33,27.82-21.47c0.24-1.13,0.49-2.2,0.74-3.25c-4.27,1.86-8.75,2.84-13.04,2.84c-7.11,0-13.07-2.69-15.56-7.01
		c-4.87-8.45,4.32-21.15,12.82-27.08c6.69-4.66,13.96-5.64,18.88-5.64c1.88,0,3.77,0.14,5.61,0.42l0.41,0.61l-0.2,0.86l-0.51,0.39
		c-0.45-0.02-0.95-0.03-1.48-0.03c-4.13,0-8.2,0.67-12.09,1.98c-3.62,1.22-8.97,3.69-13.96,8.49c-3.38,3.26-7.2,6.95-7.66,12.44
		c-0.11,1.37-0.38,4.56,1.59,7.25c2.86,3.89,8.72,4.08,11.88,4.18c0.19,0.01,0.38,0.01,0.57,0.01c1.86,0,3.6-0.28,5.13-0.53
		c0.88-0.14,1.72-0.28,2.46-0.34c3.98-0.08,5.13-1.69,5.51-2.22l0.09-0.12c0.41-0.54,0.86-0.71,1.16-0.77
		c0.09-0.02,0.18-0.02,0.26-0.02c0.36,0,0.67,0.15,0.87,0.42c0.63,0.83,0.2,2.62-0.48,5.05c-0.11,0.39-0.22,0.79-0.3,1.13
		c0.51-0.17,1.02-0.33,1.53-0.49c1.22-0.38,2.52-0.73,4.18-1.14c0.75-4.5,4.54-8.22,8.78-8.53c0.12-0.01,0.26-0.02,0.39-0.02
		c1.85,0,3.79,0.94,4.74,2.29c0.66,0.94,0.8,2.01,0.41,3.09c-1.63,3.04-5.69,3.95-9.27,4.75c-0.82,0.18-1.6,0.36-2.3,0.55
		c0.74,1.64,2.16,2.43,4.32,2.43c3.18,0,7.33-1.83,9.92-3.4c3.48-2.09,6.77-4.61,9.94-7.05l0.55-0.42c0.27-0.22,0.63-0.35,1-0.35
		c0.73,0,1.29,0.49,1.36,1.19c0.01,0.31-0.04,0.6-0.13,0.87c2-1.18,5.1-2.68,7.55-2.68c1.13,0,2.01,0.33,2.61,0.97
		c0.52,0.56,0.81,1.35,0.87,2.34c1.28-0.91,3.17-2.08,4.81-2.08c0.92,0,2.18,0.37,2.92,2.14c0.27,0.51,0.47,1.14,0.65,1.75
		c0.37,1.21,0.72,2.36,1.83,2.79c0.75,0.38,1.05,1.25,0.71,1.95c-0.27,0.52-0.71,0.8-1.25,0.8c-0.64,0-1.3-0.4-1.78-0.69
		c-1.15-0.7-1.67-1.85-2.09-3c-0.15-0.25-0.28-0.71-0.41-1.2c-0.17-0.63-0.42-1.59-0.79-1.59c-0.09,0-0.21,0.04-0.34,0.11
		c-1.77,0.84-3.35,2.08-4.82,3.27c-0.32,0.32-1.25,1.15-2.15,1.15c-0.41,0-1.15-0.18-1.42-1.37l0-0.2c0.11-0.61,0.4-1.19,0.68-1.74
		c0.44-0.89,0.83-1.66,0.54-2.46c-0.19-0.15-0.42-0.23-0.72-0.23c-0.52,0-1.14,0.21-1.73,0.42c-0.32,0.11-0.63,0.22-0.91,0.29
		c-2.89,1.06-5.66,2.91-7.95,5.33c-0.48,0.59-0.97,0.89-1.49,0.89c-0.26,0-0.51-0.08-0.74-0.23c-0.53-0.35-0.78-1.05-0.55-1.63
		c0.22-0.43,0.45-0.83,0.69-1.22c-4.88,3.61-9.97,7.13-16.09,7.81c-0.35,0.04-0.71,0.06-1.08,0.06c-2.99,0-6.25-1.36-7.1-4.38
		c-2.45,0.62-4.48,1.22-6.49,1.94C61.43,108.23,53.11,134.32,40.28,134.32C40.28,134.32,40.28,134.32,40.28,134.32z M61.33,95.25
		c-10.88,4.5-26.42,16.84-28.19,27.73c-0.36,2.17,0.29,4.48,1.74,6.19c1.35,1.6,3.2,2.48,5.2,2.48c0.1,0,0.2,0,0.3-0.01
		C51.13,131.2,58.66,108.16,61.33,95.25z M79.45,83.57c-2.64,0-5.31,2.65-6.17,5.15c0.49-0.12,1.02-0.25,1.58-0.38
		c2.73-0.63,6.46-1.48,7.37-3.25c0-0.11-0.05-0.23-0.13-0.34C81.37,83.98,80.47,83.57,79.45,83.57z"/>
	<path class="st0" d="M47.27,57.92c9.84-6.86,20.83-5.64,24.13-5.14c-0.07,0.29-0.13,0.57-0.2,0.86c-3.09-0.12-8.06,0.06-13.75,1.98
		c-2.76,0.93-8.6,3.26-14.14,8.6c-3.46,3.33-7.34,7.08-7.81,12.76c-0.11,1.36-0.4,4.75,1.68,7.58c2.86,3.9,8.32,4.26,12.26,4.38
		c3.24,0.1,6.1-0.69,8.21-0.86c4.5-0.09,5.63-2.11,5.95-2.53c0.06-0.07,0.37-0.5,0.85-0.58c2.12-0.37-0.37,5.6-0.37,6.82
		c0.77-0.26,1.54-0.51,2.31-0.75c1.48-0.46,2.98-0.85,4.48-1.21c0.54-4.15,4.09-8.12,8.37-8.44c2.49-0.2,6.08,1.82,5.03,4.7
		c-1.94,3.61-8.14,4.04-11.77,5.15c2.1,6.17,11.33,2.11,15.16-0.21c3.7-2.22,7.11-4.88,10.53-7.5c0.54-0.44,1.49-0.29,1.56,0.49
		c0.04,0.83-0.6,1.52-0.92,2.25c3-2.16,12.37-7,11.8,0.21c2.15-1.6,6.22-4.48,7.78-0.74c0.86,1.62,0.82,4.05,2.76,4.81
		c0.46,0.23,0.67,0.8,0.44,1.27c-0.54,1.03-1.69,0.29-2.39-0.14c-0.97-0.59-1.43-1.67-1.8-2.7c-0.56-0.97-0.56-3.83-2.24-2.96
		c-1.79,0.85-3.37,2.08-4.91,3.33c-0.83,0.83-2.36,1.83-2.76,0.05c0.27-1.49,1.83-2.93,1.16-4.56c0,0,0.02,0.01,0.02,0.01
		c-1-1.06-2.76-0.04-3.94,0.25c-3.1,1.14-5.94,3.09-8.19,5.48c-0.38,0.47-0.97,1-1.59,0.58c-0.33-0.21-0.51-0.66-0.36-1.04
		c0.59-1.14,1.34-2.19,1.96-3.31c-5.36,3.98-11.04,8.46-17.88,9.23c-3.13,0.37-7.13-0.96-7.75-4.43c-2.56,0.63-4.87,1.3-7.3,2.18
		c-2.09,11.2-11.54,46.61-27.91,38.93c-7.22-3.83-5.34-13.48-1.14-18.95c7.07-9.46,16.78-17.18,27.85-21.4
		c0.32-1.51,0.67-3.01,1.05-4.5c-12.56,5.91-25.09,3.07-28.9-3.54C29.94,76.25,39.01,63.68,47.27,57.92z M40.39,132.14
		c12.1-0.5,19.66-27.76,21.61-37.69c-10.47,4.02-27.47,16.87-29.36,28.46C31.86,127.62,35.49,132.36,40.39,132.14z M72.58,89.43
		c2.7-0.85,8.89-1.53,10.14-4.2c0.05-0.28-0.05-0.58-0.22-0.79C78.93,80.68,73.32,85.4,72.58,89.43z"/>
	<path class="st0" d="M125.05,88.59c-1.38,0-2.73-0.15-4.01-0.46c-3.18-1.26-3.85-3.21-3.86-4.62c-0.03-4.17,5.45-9.19,9.08-10.68
		c1.93-0.88,4.18-1.82,6.29-1.82c1.48,0,2.72,0.48,3.66,1.42c0.87,1.02,0.84,2.58-0.05,3.57c-1.66,1.94-4.17,2.86-6.39,3.67
		l-0.21,0.08l-0.1,0.03c-0.2,0.03-0.54,0.18-0.88,0.33c-0.56,0.25-1.2,0.53-1.76,0.53c-0.52,0-0.92-0.25-1.13-0.69
		c-0.12-0.33-0.11-0.66,0.03-0.94c0.13-0.28,0.37-0.5,0.66-0.6c0.7-0.29,1.5-0.56,2.27-0.82c2.26-0.76,4.59-1.54,5.85-3.38
		c-0.13-0.29-0.48-0.83-1.76-0.83c-2.59,0-6.62,2.1-7.77,2.99c-2.91,1.86-5.66,5.43-5.02,7.62c0.46,1.58,2.69,1.91,4.48,1.91l0.26,0
		c6.64-0.41,13.03-3.36,17.87-5.91c0.94-1.66,3.21-5.17,5.69-5.17c0.44,0,0.86,0.11,1.26,0.32l0.09,0.06
		c0.53,0.46,0.76,1.12,0.63,1.83c-0.73,2.09-2.63,3.27-4.3,4.31c-0.34,0.21-0.67,0.41-0.98,0.62c-0.38,0.99-0.46,1.74-0.2,2.12
		c0.19,0.28,0.59,0.42,1.21,0.42c2.84,0,8.4-2.93,9.81-3.94c2.28-1.45,4.35-2.92,6.17-4.38c0.28-0.28,0.72-0.46,1.18-0.46
		c0.51,0,0.95,0.23,1.22,0.63c0.57,0.82,0.05,1.69-0.29,2.26l-0.07,0.12c-0.36,0.58-0.71,1.16-1.04,1.76
		c0.39-0.29,0.78-0.58,1.16-0.88c2.15-1.63,4.36-3.32,7.13-3.86c0.34-0.05,0.64-0.07,0.92-0.07c1.21,0,2.14,0.4,2.77,1.19
		c0.99,1.23,0.96,3.1,0.76,4.47c0.06-0.01,0.11-0.01,0.17-0.01c0.69,0,1.29,0.49,1.47,1.19c0.17,0.69-0.12,1.35-0.76,1.7
		c-0.44,0.31-1.05,0.5-1.67,0.5c-1.17,0-2.13-0.67-2.44-1.72c-0.3-0.77-0.11-1.61,0.06-2.34c0.16-0.7,0.31-1.32,0.04-1.84
		c-0.21-0.08-0.43-0.11-0.68-0.11c-1.6,0-3.63,1.61-5.6,3.17c-2,1.59-3.9,3.09-5.54,3.09c-0.21,0-0.42-0.03-0.62-0.08
		c-0.65-0.27-1.05-0.7-1.23-1.25c-0.17-0.52-0.13-1.08,0-1.61c-2.75,1.85-8.74,5.5-12.9,5.5c-1.78,0-3.92-0.69-4.38-3.83l-0.54,0.24
		C136.17,86.11,130.61,88.59,125.05,88.59z"/>
	<path class="st0" d="M121.16,87.64c-8.35-3.31,0.35-12.32,5.3-14.36c2.76-1.25,6.88-3.02,9.41-0.51c0.7,0.83,0.64,2.09-0.07,2.89
		c-1.63,1.9-4.11,2.77-6.4,3.61c-0.86,0.13-2.74,1.52-3.24,0.45c-0.12-0.34,0.05-0.74,0.4-0.86c2.87-1.2,6.68-1.76,8.47-4.53
		c0.01-0.1,0.02-0.19,0.01-0.2c-1.12-3.19-8.56,0.43-10.35,1.82c-4.79,3.06-9.07,10.57,0.03,10.42c6.46-0.4,12.59-3.06,18.23-6.04
		c1.05-1.89,3.81-6.13,6.34-4.78c0.4,0.34,0.56,0.84,0.47,1.36c-0.8,2.28-3.31,3.42-5.2,4.69c-2.91,7.17,9.35,0.89,11.52-0.67
		c2.13-1.35,4.23-2.82,6.19-4.39c0.45-0.45,1.29-0.51,1.66,0.06c0.42,0.61-0.05,1.3-0.37,1.84c-0.73,1.18-1.39,2.29-1.92,3.53
		c3.16-2.01,5.9-5.02,9.7-5.76c3.94-0.56,4.38,2.8,3.71,5.82c0.12-0.01,0.22-0.07,0.32-0.11c1.22-0.6,2.15,1.19,0.96,1.83
		c-1.14,0.8-2.96,0.53-3.39-0.92c-0.56-1.44,0.86-3.09-0.03-4.44c-3.66-1.65-9.37,6.85-12.66,5.99c-1.57-0.68-0.9-2.62-0.24-3.75
		c-3.7,2.69-17.39,11.47-17.97,2.32C135.61,85.8,128.33,89.35,121.16,87.64z"/>
	<path class="st0" d="M190.75,89.95c-1.02,0-2.14-0.09-3.44-0.28c-0.26-0.06-0.57-0.13-0.93-0.2c-2.39-0.51-6.83-1.45-7.86-3.25
		c-0.25-0.44-0.3-0.92-0.14-1.4c0.22-0.66,0.83-1.1,1.53-1.1c0.38,0,0.73,0.14,0.98,0.39c0.13,0.14,0.29,0.36,0.35,0.68
		c1.97,0.89,6.19,2.39,9.71,2.39c2.58,0,4.21-0.8,4.86-2.37c-0.05-2.22-4.35-3.15-7.5-3.83c-1.14-0.25-2.13-0.46-2.81-0.71
		c-0.99-0.15-3.34-0.97-3.67-2.4c-0.12-0.5-0.03-1.27,1.06-2.04c4.1-2.15,8.61-3.41,12.52-4.41c0.11-0.03,0.21-0.04,0.31-0.04
		c0.61,0,1.11,0.47,1.18,1.11c0.07,0.64-0.31,1.19-0.93,1.33c-3.58,0.93-7.36,1.98-10.76,3.65c1.31,0.46,2.71,0.77,4.07,1.06
		c2.79,0.6,5.67,1.22,7.94,3.21c1.53,1.36,1.71,3.84,0.42,5.53C196.18,89.08,193.93,89.95,190.75,89.95z"/>
	<path class="st0" d="M187.38,89.18c-1.77-0.43-9.38-1.66-8.54-4.19c0.34-1.01,1.94-1.05,1.93,0.15c3.66,1.73,13.59,4.87,15.54-0.22
		c0.1-3.58-8-4.15-10.64-5.1c-1.71-0.27-4.96-1.82-2.49-3.57c3.88-2.03,8.13-3.25,12.35-4.34c0.92-0.22,1.25,1.22,0.32,1.43
		c-4.05,1.05-8.17,2.2-11.85,4.2c4.15,1.86,9.32,1.47,12.89,4.59c1.38,1.23,1.45,3.41,0.35,4.85
		C194.93,89.82,190.69,89.66,187.38,89.18z"/>
	<path class="st0" d="M261.41,89.04c-0.49,0-0.91-0.17-1.23-0.5c-0.89-0.91-0.83-2.86-0.78-4.75c0.03-0.97,0.06-2.05-0.09-2.65
		c-1.2,0.36-2.33,1.09-3.42,1.79c-0.47,0.3-0.94,0.61-1.41,0.88c-0.47,0.3-1.08,0.69-1.77,0.69c-0.19,0-0.38-0.03-0.56-0.09
		c-1.49-0.55-1.16-2.02-0.95-2.9c0.04-0.19,0.09-0.38,0.11-0.55c0.16-0.92,0.06-2.23-0.56-2.96c-0.31-0.37-0.7-0.54-1.19-0.54
		c-0.06,0-0.12,0-0.18,0.01c-5.29,0.49-9.43,4.56-12.08,7.58c-0.53,0.71-1.8,1.96-3.01,1.96c-0.47,0-1.33-0.21-1.69-1.59l-0.02-0.12
		c-0.03-1.29,0.43-2.49,0.87-3.65c0-0.01,0.01-0.02,0.01-0.03c-2.51,2.3-5.17,4.49-8.52,5.41c-0.54,0.18-1.12,0.27-1.69,0.27
		c-1.53,0-2.92-0.67-3.74-1.79c-0.55-0.76-0.8-1.68-0.74-2.65c-2.59,1.69-7.44,4.15-11.33,4.15c-1.9,0-3.33-0.59-4.27-1.76
		l-0.06-0.09c-1.59-3.28,3.08-6.19,5.6-7.76l0.62-0.39c1.95-1.15,3.98-1.78,5.71-1.78c1.91,0,3.47,0.71,4.64,2.12
		c0.34,0.28,0.48,0.8,0.3,1.29c-0.02,0.07-0.06,0.13-0.09,0.19c0.22-0.19,0.42-0.39,0.6-0.61c0.3-0.55,0.9-1.3,1.69-1.3
		c0.29,0,0.57,0.1,0.82,0.3c0.99,0.91,0.24,1.9-0.2,2.49c-0.23,0.31-0.47,0.63-0.51,0.88l-0.04,0.12c-0.6,1.37-0.75,2.57-0.38,3.14
		c0.21,0.31,0.59,0.47,1.17,0.47c0.18,0,0.38-0.02,0.6-0.05c3.28-0.65,5.82-3,8.29-5.27c0.86-0.79,1.74-1.6,2.64-2.33
		c0.39-0.27,0.81-0.41,1.22-0.41c0.31,0,0.6,0.08,0.85,0.23c1.23,0.94,0.93,2.48,0.48,3.89c3.03-2.89,8.23-6.06,12.22-6.06
		c1.83,0,4.84,0.75,5.19,5.56c1.4-0.85,3.41-1.95,5.05-1.95c1.14,0,2.57,0.52,2.92,3c0.13,0.95,0.1,1.9,0.08,2.83
		c-0.03,1.05-0.06,2.04,0.13,3.01c0.2,0.39,0.24,0.84,0.12,1.24c-0.12,0.4-0.39,0.72-0.75,0.91l-0.12,0.04
		C261.79,89.01,261.59,89.04,261.41,89.04L261.41,89.04z M205.44,83.77c0.56,0.35,1.3,0.53,2.21,0.53c3.35,0,8.17-2.49,10.42-4.06
		c0.18-0.14,0.91-0.66,1.07-0.78c-0.1,0.03-0.21,0.05-0.32,0.05c-0.29,0-0.56-0.11-0.79-0.31c-0.88-1.01-1.84-1.48-2.98-1.48
		c-0.88,0-1.86,0.26-3.09,0.82C209.51,79.78,206.79,81.33,205.44,83.77z"/>
	<path class="st0" d="M203.59,84.95c-1.52-3.14,3.83-6.1,6.03-7.51c3-1.77,7.15-2.82,9.7,0.24c0.73,0.63-0.23,1.78-0.97,1.14
		c-1.91-2.21-4.24-1.81-6.61-0.73c-2.58,1.32-5.38,2.93-6.78,5.52c0.01-0.02,0.01-0.05,0.02-0.07c0-0.01,0.01-0.02,0.01-0.04
		c-0.01,0.02-0.01,0.04-0.01,0.06c0,0,0,0.01,0,0c-0.03,0.07-0.01,0.22-0.04,0.26c0.03,0.11,0.06,0.21,0.11,0.31c0,0,0-0.02,0-0.02
		c3.2,2.23,10.44-1.45,13.31-3.46c0.87-0.66,1.84-1.27,2.54-2.1c0.35-0.62,1.05-1.52,1.82-0.93c0.99,0.91-0.73,1.9-0.9,2.89
		c-0.92,2.09-1.21,4.72,1.92,4.25c4.62-0.92,7.69-4.89,11.17-7.71c0.42-0.3,1.03-0.43,1.49-0.14c1.53,1.17-0.12,3.94-0.41,5.47
		c3.84-5.05,18.04-13.28,18.1-1.62c2.41-1.52,7.27-4.5,7.94,0.24c0.27,1.97-0.17,3.99,0.23,5.94c0.3,0.53,0.19,1.24-0.38,1.54
		c-3.32,0.76-1.24-6.36-2.26-7.94c-1.98,0.44-3.65,1.83-5.38,2.84c-0.57,0.36-1.22,0.79-1.92,0.56c-1.31-0.48-0.65-1.94-0.5-2.89
		c0.31-1.73-0.27-4.25-2.46-4.07c-5.09,0.47-9.19,4.08-12.42,7.75c-0.93,1.24-3.2,3.02-3.84,0.57c-0.04-1.86,1.04-3.58,1.48-5.37
		c-2.87,2.67-5.87,5.57-9.75,6.63c-3.24,1.05-6.45-1.32-5.31-4.81C216.25,84.23,206.82,89,203.59,84.95z"/>
	<path class="st0" d="M285.78,85.72c-1.51,0-2.97-0.21-4.34-0.62c-1.87-0.57-4-2.03-3.84-4.27c0.24-1.54,1.47-2.43,2.56-3.21
		c0.19-0.14,0.38-0.27,0.56-0.41c0.82-0.63,1.74-1.21,2.64-1.77c1.57-0.98,3.18-1.99,4.32-3.35c-3.43,0.3-6.71,1.79-9.56,3.19
		c-0.17,0.08-0.35,0.12-0.53,0.12c-0.44,0-0.84-0.24-1.05-0.63c-0.15-0.29-0.17-0.62-0.07-0.93c0.1-0.3,0.31-0.54,0.59-0.67
		c1.15-0.55,2.31-1.1,3.48-1.62l0.24-0.09c1.35-0.5,4.92-1.82,7.28-1.82c1,0,1.68,0.23,2.11,0.7c0.33,0.37,0.47,0.85,0.41,1.44
		c-0.44,1.7-1.79,2.73-2.98,3.64c-0.23,0.17-0.45,0.35-0.67,0.52c-0.83,0.67-1.74,1.26-2.63,1.83c-1.56,1-3.03,1.95-4.09,3.29
		c0,0.19,0.23,0.49,0.49,0.7c1.31,0.82,2.97,1.25,4.88,1.25c1.9,0,4.08-0.44,6.29-1.26c0.4-0.25,0.79-0.38,1.15-0.38
		c0.47,0,0.85,0.24,1.08,0.67c0.58,1.27-0.71,1.87-1.34,2.16c-0.12,0.05-0.22,0.1-0.32,0.15C290.3,85.25,288.02,85.72,285.78,85.72z
		"/>
	<path class="st0" d="M281.58,84.62c-1.67-0.51-3.63-1.78-3.49-3.75c0.24-1.54,1.78-2.38,2.92-3.25c2.53-1.95,5.95-3.3,7.67-6.07
		c-3.81,0.05-7.43,1.63-10.8,3.29c-0.34,0.16-0.74,0.05-0.92-0.29c-0.16-0.32-0.05-0.76,0.29-0.92c1.15-0.55,2.31-1.09,3.47-1.61
		c1.64-0.6,9.69-3.71,9.34-0.28c-0.45,1.74-2.14,2.76-3.46,3.82c-2.24,1.81-5.12,3.03-6.87,5.28c0.01-0.02,0.02-0.04,0.02-0.06
		c0.01-0.02,0.02-0.04,0.02-0.04c-0.27,0.52,0.23,1.11,0.59,1.41c3.44,2.16,8.04,1.42,11.66,0.07c0.51-0.3,1.25-0.63,1.61,0.05
		c0.43,0.94-0.81,1.3-1.45,1.64C288.89,85.31,285.02,85.65,281.58,84.62z"/>
	<path class="st0" d="M301.77,86.49c-0.25,0-0.49-0.01-0.72-0.03c-1.5-0.07-3.44-0.96-4.06-2.46c-0.4-0.98-0.15-2.03,0.72-2.96
		c0.46-0.42,0.87-0.51,1.15-0.51c0.55,0,1.04,0.33,1.27,0.86c0.23,0.51,0.17,1.1-0.14,1.59c0.7,0.55,1.58,0.68,2.23,0.68
		c2.17,0,4.75-1.4,5.04-3.42c-0.24-1.19-1.08-2.14-1.97-3.14c-0.94-1.06-1.9-2.15-2.24-3.61c-0.35-1.12-0.25-2.08,0.3-2.82
		c0.64-0.87,1.88-1.35,3.49-1.35c1.18,0,2.45,0.27,3.38,0.73c0.16,0.08,0.36,0.15,0.56,0.22c0.61,0.22,1.31,0.46,1.59,1.07
		c0.15,0.32,0.14,0.68-0.01,1.07c-0.31,0.52-0.73,0.75-1.24,0.75c-0.58,0-1.19-0.29-1.79-0.58c-0.42-0.2-0.85-0.41-1.13-0.43
		c-0.35-0.06-1.03-0.2-1.64-0.2c-0.67,0-0.89,0.16-0.95,0.23c-0.02,0.03-0.08,0.09-0.06,0.31c0.25,1.23,1.13,2.21,2.05,3.26
		c1.1,1.25,2.24,2.53,2.34,4.37C309.83,83.94,305.63,86.49,301.77,86.49z"/>
	<path class="st0" d="M301.09,85.96c-2.38-0.11-5.17-2.26-3.02-4.59c1.13-1.03,2.29,0.47,1.34,1.53c-0.01,0.04-0.02,0.09-0.03,0.13
		c0,0.03,0,0.05,0,0.08c0,0,0,0,0,0c2.35,2.36,7.99,0.39,8.37-2.9c-0.49-2.69-3.6-4.13-4.23-6.85c-1.24-4,3.99-4.09,6.46-2.88
		c0.74,0.38,2.36,0.55,1.89,1.73c-0.75,1.21-2.57-0.49-3.65-0.57c-0.94-0.18-3.35-0.61-3.18,0.89c0.61,2.99,4.23,4.47,4.39,7.6
		C309.32,84.06,304.59,86.28,301.09,85.96z"/>
	<path class="st0" d="M318.07,84.09c-0.32,0-0.63-0.14-0.86-0.39c-1.03-0.96-0.46-2.54-0.22-3.22c0.66-1.55,1.17-3.16,1.67-4.73
		c0.61-1.92,1.24-3.9,2.13-5.76c2.24-3.87,5.13-7.65,9.4-12.3c0.27-0.25,0.56-0.37,0.87-0.37c0.53,0,1.03,0.36,1.23,0.87
		c0.19,0.49,0.06,1-0.34,1.37c-3.53,3.94-6.92,7.88-9.21,12.33c-0.65,1.85-1.31,3.81-1.96,5.76c-0.53,1.58-1.06,3.16-1.6,4.71
		c0.16,0.31,0.16,0.67,0.01,0.99C318.99,83.79,318.54,84.09,318.07,84.09z"/>
	<path class="st0" d="M317.58,83.36c-0.76-0.71-0.42-1.86-0.12-2.71c1.45-3.41,2.19-7.1,3.78-10.44c2.56-4.43,5.87-8.42,9.32-12.18
		c0.74-0.68,1.81,0.48,1.05,1.16c-3.45,3.85-6.97,7.9-9.32,12.47c-1.25,3.55-2.44,7.23-3.67,10.77
		C319.21,83.11,318.19,84.03,317.58,83.36z"/>
	<path class="st0" d="M314.86,69.36c-0.65,0-1.2-0.43-1.34-1.06c-0.08-0.36,0-0.74,0.2-1.05c0.2-0.3,0.5-0.5,0.84-0.56
		c4.25-0.83,8.78-1.36,13.46-1.59c1.89-0.08,3.77-0.19,5.65-0.3c1.44-0.08,2.88-0.17,4.32-0.24c0,0,0,0,0,0
		c0.76,0,1.34,0.51,1.4,1.19c0.02,0.36-0.08,0.67-0.31,0.92c-0.61,0.67-1.98,0.69-3.18,0.71c-0.5,0.01-1.01,0.02-1.26,0.08
		c-1.56,0.12-3.02,0.18-4.49,0.25c-1.75,0.08-3.56,0.16-5.33,0.31c-3.37,0.28-6.55,0.71-9.72,1.32
		C315.04,69.36,314.95,69.36,314.86,69.36z"/>
	<path class="st0" d="M314.01,68.2c-0.1-0.44,0.19-0.93,0.65-1.02c4.42-0.86,8.9-1.36,13.4-1.58c3.33-0.14,6.65-0.37,9.97-0.54
		c0.44-0.02,0.84,0.28,0.88,0.74c0.1,1.46-3.35,0.91-4.37,1.18c-3.24,0.22-6.49,0.28-9.73,0.54c-3.3,0.28-6.53,0.71-9.77,1.32
		C314.58,68.93,314.11,68.67,314.01,68.2z"/>
	<path class="st0" d="M286.29,60.01c-0.4,0-0.76-0.22-0.94-0.57c-0.26-0.51-0.07-1.15,0.44-1.42c0.35-0.18,0.69-0.36,1.03-0.54
		c1.13-0.6,2.3-1.23,3.53-1.72c0.45-0.23,0.96-0.35,1.45-0.35c0.94,0,1.71,0.46,2.02,1.2c0.33,0.8,0.06,1.74-0.76,2.56
		c-0.17,0.17-0.77,0.7-1.51,0.7c-0.37,0-0.7-0.14-0.96-0.4c-0.36-0.37-0.45-0.87-0.25-1.34c0.02-0.05,0.04-0.09,0.07-0.14
		c-0.64,0.27-1.27,0.62-1.92,0.99c-0.56,0.32-1.14,0.65-1.73,0.91C286.63,59.97,286.46,60.01,286.29,60.01z"/>
	<path class="st0" d="M285.79,59.21c-0.14-0.27-0.03-0.61,0.24-0.75c1.49-0.78,2.94-1.61,4.5-2.24c2.13-1.06,4.02,0.72,2.17,2.6
		c-0.44,0.43-1.24,0.83-1.76,0.31c-0.61-0.63,0.22-1.63,0.96-1.24c0.2-0.17,0.64-0.69,0.23-0.83c0,0-0.01-0.01-0.01-0.01
		c-2.04,0.15-3.76,1.58-5.59,2.41C286.28,59.59,285.93,59.48,285.79,59.21z"/>
	<path class="st1" d="M369.76,86.21c-0.67,0-1.21-0.4-1.36-1.03c-0.12-0.51,0.08-1.03,0.48-1.35c1.32-6.18,4.02-11.96,6.63-17.55
		c1.36-2.91,2.76-5.91,3.95-8.93c-0.25-0.16-0.44-0.4-0.54-0.7c-0.16-0.53,0.03-1.09,0.48-1.39c0.41-0.31,0.86-0.65,1.44-0.65
		l0.15,0.01c0.65,0.13,0.96,0.51,1.11,0.8c0.61,1.21-0.39,3.37-1.19,5.09c-0.28,0.61-0.55,1.19-0.63,1.5
		c-0.79,1.85-1.62,3.64-2.42,5.36c-1.68,3.64-3.42,7.4-4.68,11.26c-0.36,1-0.62,2.05-0.86,3.06c-0.29,1.19-0.59,2.42-1.06,3.59
		C370.99,85.85,370.39,86.21,369.76,86.21z"/>
	<path class="st1" d="M368.89,85.06c-0.08-0.38,0.11-0.76,0.44-0.93c1.99-9.59,7.32-18.07,10.79-27.1
		c-0.72,0.03-1.04-0.96-0.44-1.36c0.35-0.26,0.74-0.59,1.21-0.56c2.4,0.49-0.72,5.35-1.1,6.78c-2.38,5.52-5.21,10.87-7.09,16.6
		c-0.78,2.16-1.06,4.49-1.91,6.62C370.44,85.85,369.11,85.98,368.89,85.06z"/>
	<path class="st1" d="M332.52,111.23c-0.85,0-1.71-0.01-2.56-0.03c-6.61-0.38-14.12-1.14-19.95-5.46c-2.78-2.05-3.24-4.4-3.13-6
		c0.2-3.02,2.58-6.2,6.07-8.11c3.3-2.02,7.12-3.15,10.44-4.04c1.32-0.36,2.64-0.7,3.96-1.02c0.09-0.02,0.19-0.04,0.29-0.04
		c0.59,0,1.12,0.42,1.24,1c0.15,0.67-0.26,1.33-0.94,1.52c-0.59,0.17-1.19,0.34-1.79,0.51c-3.94,1.12-8.02,2.27-11.58,4.39
		c-3.48,2.16-5.14,4.4-4.8,6.48c0.45,2.74,4.4,5.37,10.07,6.71c3.94,0.95,8.29,1.4,13.29,1.4c1.48,0,3.01-0.04,4.67-0.12
		c8.78-0.51,16.37-1.52,23.23-3.1c4.67-1.03,27.98-6.57,29.25-14.89c0.46-2.99-2.11-6.11-7.64-9.28c-2.73-1.66-5.69-2.99-8.56-4.27
		l-1.45-0.65c-0.48-0.24-0.96-0.47-1.45-0.69c-2-0.94-4.07-1.91-5.44-3.75c-0.56-0.76-0.75-1.55-0.55-2.33
		c0.39-1.54,2.16-2.58,3.18-3.07c1.76-1,3.63-1.93,5.43-2.84c0.64-0.32,1.28-0.64,1.92-0.97c5.04-2.57,10.88-5.73,15.96-9.7
		c4.07-3.24,6.17-6.25,5.62-8.05c-0.41-1.35-2.41-2.19-5.78-2.44c-2.07-0.17-4.19-0.26-6.3-0.26c-8.29,0-16.75,1.29-25.15,3.84
		c-0.41,0.16-0.97,0.36-1.58,0.58c-3.48,1.23-9.31,3.28-8.69,6.61c0.04,0.37-0.06,0.67-0.26,0.9c-0.22,0.24-0.54,0.37-0.88,0.37
		c-0.61,0-1.09-0.43-1.13-1.03c-0.02-0.36-0.03-0.71-0.03-1.06c0.26-8.74,28.59-12.69,37.15-12.69c0.35,0,0.68,0.01,0.96,0.02
		c0.67-0.03,1.36-0.04,2.02-0.04c7.04,0,11.25,1.56,12.2,4.51c1.04,3.27-2.15,7.76-9.01,12.64c-5.25,3.71-11,6.72-16.44,9.49
		l-1.06,0.55c-1.72,0.89-3.5,1.81-5.1,2.93c-0.06,0.05-0.15,0.13-0.21,0.2c1.31,1.81,3.69,2.81,6,3.76
		c1.09,0.45,2.12,0.88,3.05,1.39c4.77,2.25,10.21,4.81,13.9,9.16c2.04,2.86,2.56,5.62,1.55,8.24c-3.62,9.39-26,14.31-34.43,16.16
		l-0.73,0.16C348.3,110.44,340.19,111.23,332.52,111.23z"/>
	<path class="st1" d="M329.98,110.7c-6.78-0.39-14.05-1.2-19.67-5.36c-5.7-4.2-2.24-10.47,2.88-13.28c3.17-1.94,6.76-3.03,10.33-4
		c1.32-0.36,2.63-0.7,3.95-1.02c0.41-0.1,0.84,0.18,0.93,0.59c0.1,0.42-0.18,0.82-0.58,0.93c-4.6,1.33-9.34,2.48-13.49,4.95
		c-10.31,6.4-3.14,12.08,5.41,14.1c5.91,1.42,12.05,1.59,18.1,1.3c7.84-0.45,15.67-1.35,23.31-3.12
		c11.52-2.54,44.79-11.89,21.75-25.09c-3.19-1.95-6.65-3.41-10.05-4.94c-2.34-1.18-5.08-2.11-6.69-4.29
		c-1.55-2.11,0.66-3.8,2.44-4.65c2.41-1.36,4.9-2.56,7.36-3.81c5.56-2.83,11.12-5.91,16.04-9.75c5.43-4.33,10.17-10.59-0.43-11.39
		c-10.61-0.88-21.47,0.52-31.64,3.6c-3.17,1.24-11.43,3.39-10.62,7.75c0.08,0.84-1.22,0.93-1.28,0.11
		c-0.01-0.34-0.03-0.68-0.03-1.02c0.25-8.54,30.58-12.51,37.59-12.17c17.09-0.67,18.13,6.81,4.94,16.21
		c-5.16,3.64-10.76,6.59-16.37,9.45c-2.11,1.11-4.26,2.15-6.22,3.51c-0.21,0.18-0.51,0.41-0.47,0.71c1.96,2.95,6.33,3.84,9.35,5.5
		c4.95,2.33,10.16,4.8,13.76,9.04c10.39,14.56-24.04,21.7-33.33,23.75C348.26,109.94,339.11,110.92,329.98,110.7z"/>
	<path class="st1" d="M418.27,90.77c-1.16,0-2.28-0.25-3.34-0.74c-1.56-0.59-2.69-1.92-3.68-3.09c-0.19-0.22-0.38-0.45-0.57-0.66
		c-0.26,0.16-0.52,0.33-0.77,0.5c-1.35,0.88-2.74,1.78-4.49,1.94c-0.16,0.02-0.32,0.03-0.47,0.03c-1.1,0-1.96-0.46-2.42-1.3
		c-0.32-0.59-0.4-1.31-0.26-2.04c-2.81,1.68-5.35,2.73-7.9,3.27c-0.96,0.21-1.88,0.31-2.72,0.31c-2.46,0-4.33-0.92-5.26-2.59
		c-1.19-2.14-0.75-5.19,1.22-8.37c2.09-3.59,8.58-10.04,14.03-10.04c1.04,0,2,0.23,2.85,0.7l0.12,0.09c0.82,0.83,1.14,1.71,0.95,2.6
		c-0.54,2.52-5.19,4.36-8.26,5.57c-0.77,0.3-1.43,0.56-1.84,0.77l-0.13,0.04c-0.3,0.06-0.84,0.33-1.35,0.6
		c-0.87,0.45-1.76,0.92-2.51,0.92c-0.37,0-0.67-0.11-0.91-0.33c-1.62,2.57-2.17,4.6-1.56,5.76c0.52,0.99,1.83,1.19,2.84,1.19
		c1.79,0,4.1-0.64,6.49-1.79c1.93-0.92,3.88-2.12,6.31-3.88c0.46-0.33,0.88-0.49,1.3-0.49c0.06,0,0.12,0,0.19,0.01
		c0.69,0.17,1.11,0.49,1.3,0.95c0.42,1.01-0.4,2.35-1.19,3.65c-0.26,0.43-0.53,0.87-0.71,1.24c0.75-0.14,1.53-0.65,2.28-1.15
		c0.94-0.62,1.92-1.26,2.96-1.26c0.68,0,1.31,0.28,1.89,0.83l0.07,0.08c1.69,2.5,3.59,3.77,5.67,3.77c0.81,0,1.65-0.2,2.51-0.59
		c2.07-0.9,3.7-3.05,4.06-5.35c0.28-1.79-0.27-3.4-1.55-4.52c-0.79-0.73-1.98-1.6-3.19-1.6c-0.09,0-0.19,0-0.28,0.02l-0.05,0.01
		l-0.01-0.02l-0.01,0.01c-0.1,0.08-0.2,0.23-0.3,0.39c-0.25,0.37-0.58,0.87-1.24,0.87c-0.14,0-0.29-0.03-0.45-0.08
		c-0.53-0.19-0.75-0.55-0.83-0.81c-0.19-0.62,0.11-1.35,0.45-1.82c0.77-0.94,1.77-1.42,2.91-1.42c2.46,0,5.3,2.28,6.51,4.39
		c1.41,2.57,1.29,5.62-0.34,8.37C424.79,88.77,421.51,90.77,418.27,90.77z M401.73,70.88c-3.02,0-6.44,2.8-8.33,4.61
		c0.26-0.11,0.54-0.22,0.84-0.34c2.16-0.88,7.76-3.15,8.35-4.19C402.31,70.91,402.03,70.88,401.73,70.88z"/>
	<path class="st1" d="M415.14,89.57c-1.89-0.71-3.09-2.56-4.37-3.94c0,0,0,0,0,0c-1.74,1.04-3.31,2.39-5.4,2.58
		c-2.61,0.29-3.33-2.09-2.05-4.06c-2.8,1.81-5.77,3.33-9.05,4.02c-7.69,1.65-10.05-3.73-6.23-9.9c2.56-4.39,10.87-12.06,16.22-9.16
		c3.89,3.95-6.49,6.9-9.02,8.13c-1.25,0.23-4.27,2.78-4.64,0.7c-6.03,8.91,0.63,10.12,7.94,6.59c2.26-1.08,4.36-2.46,6.38-3.93
		c0.33-0.24,0.72-0.43,1.14-0.38c2.69,0.67-1.06,4.33-1.24,5.86c2.69,0.36,5.02-4.08,7.48-1.73c2.1,3.12,5.05,5.05,8.81,3.36
		c3.95-1.72,6.22-7.56,2.64-10.7c-1.03-0.96-2.44-1.89-3.9-1.7c-0.08,0.03-0.26,0.06-0.28,0.12c-0.48,0.41-0.67,1.37-1.49,1.09
		c-0.88-0.31-0.54-1.3-0.13-1.87c2.51-3.06,7.08,0.32,8.58,2.92C430.19,84.26,422.01,92.77,415.14,89.57z M391.93,76.27
		c-0.14,0.15-0.27,0.33-0.4,0.49c-0.05,0.06-0.1,0.12-0.16,0.19c1.41-0.9,13.09-4.8,11.64-6.42c0.03,0.02,0.05,0.03,0.07,0.04
		C399.27,69.43,394.39,73.64,391.93,76.27z"/>
	<path class="st1" d="M457.23,110.26c-0.64,0-1.31-0.2-2-0.6c-2.97-1.97-4.83-5.15-5.25-8.96c-0.5-4.5,1.08-9.44,4.04-12.76
		c-1.18-0.28-2.2-0.81-2.93-1.54c-2.65,1.87-6.74,3.06-10.58,3.06c-5.03,0-8.75-1.94-10.28-5.35c-0.11,0.01-0.22,0.02-0.33,0.02
		c-0.89,0-1.47-0.47-1.54-1.27c-0.1-1.21,1.01-1.5,1.73-1.6c1.32-4.27,6.28-6.19,8.4-6.82c0.56-0.14,1.08-0.21,1.56-0.21
		c1.06,0,1.9,0.35,2.42,1.02c0.52,0.73,0.57,1.57,0.15,2.45c-1.26,2.63-6.7,5.3-9.32,5.91c1.8,2.49,5.27,2.88,7.27,2.88
		c3.41,0,7.06-1.09,9.21-2.74c-0.11-1.09,0.27-2.29,1.03-3.2c0.69-0.83,1.6-1.29,2.56-1.29c0.15,0,0.31,0.01,0.47,0.04
		c0.34,0.07,0.64,0.22,0.89,0.43c0.97-3.85,3.69-7.49,7.46-7.49c0.39,0,0.79,0.04,1.2,0.12c1.29,0.26,2.36,1.01,3.09,2.16
		c0.73,1.15,1.07,2.6,0.94,4.02c2.2-0.97,4.31-1.82,6.43-2.58c0.14-0.05,0.3-0.11,0.47-0.18c0.88-0.34,2.09-0.8,3.07-0.8
		c0.6,0,1.06,0.18,1.37,0.53c0.33,0.39,0.44,0.95,0.33,1.68l-0.04,0.13c-0.43,0.97-1.1,1.8-1.74,2.6c-0.69,0.86-1.34,1.68-1.71,2.63
		c0.25,0.16,0.58,0.24,0.99,0.24c1.72,0,4.21-1.37,5.54-2.1l0.24-0.13c0.75-0.49,1.5-1,2.16-1.6c0.36-0.5,0.93-0.81,1.48-0.81
		c0.36,0,0.7,0.13,0.99,0.38c0.91,0.88,0.43,1.84,0.07,2.55c-0.23,0.46-0.45,0.9-0.35,1.26c0.06,0.13,0.27,0.38,1.09,0.38
		c0.28,0,0.57-0.03,0.81-0.06c3.31-0.65,6.02-2.79,8.5-4.92c0.33-0.36,0.88-0.6,1.39-0.6c0.6,0,1.07,0.32,1.29,0.88l0.03,0.13
		c0.1,0.78-0.12,1.51-0.41,2.2c2.09-1.75,5.09-3.9,7.23-3.9c0.72,0,1.31,0.23,1.75,0.7c0.67,0.7,0.96,1.87,0.89,3.58
		c0.01,0.2,0,0.44,0,0.7c-0.02,1-0.04,2.04,0.65,2.56c0.17,0.15,0.48,0.21,0.78,0.26c0.58,0.11,1.65,0.31,1.53,1.53
		c-0.19,0.71-0.73,1.07-1.48,1.07c-1.19,0-2.76-0.85-3.21-1.54c-1-1.15-0.94-2.6-0.89-4.01c0.03-0.82,0.06-1.6-0.13-2.28
		c-0.16,0.02-0.36,0.11-0.52,0.18c-0.16,0.07-0.31,0.14-0.45,0.18c-2.02,1.01-3.84,2.6-5.6,4.14l-0.62,0.54
		c-0.14,0.11-0.26,0.22-0.39,0.33c-0.49,0.43-1.04,0.91-1.79,1.03c-0.01,0-0.01,0-0.02,0c-0.77,0-1.27-0.23-1.56-0.67
		c-0.38-0.58-0.27-1.39-0.02-2.17c-2.21,1.56-5.36,3.22-7.91,3.22h0c-1.85,0-3.17-0.87-3.84-2.52c-2.1,1.19-4.63,2.53-7.16,2.53
		c-0.92,0-1.79-0.18-2.58-0.53c-0.88-0.53-1.37-1.18-1.51-1.96c-0.26-1.41,0.71-2.96,1.66-4.24c-2.87,1.12-5.67,2.28-8.4,3.67
		c-1.78,2.78-4.6,4.74-7.6,5.29l-0.08,0.08c-0.32,0.32-0.62,0.63-0.91,0.96c0.1,0.94,0.24,1.82,0.38,2.73
		c0.05,0.34,0.11,0.68,0.16,1.03l0,0c0.18,1.1,0.37,2.21,0.55,3.31c0.53,3.15,1.08,6.4,1.5,9.62c0.33,1.31,0.14,2.61-0.55,3.49
		C458.82,109.9,458.07,110.26,457.23,110.26z M454.75,92.46c-1.53,2.75-2.08,6.45-1.32,9.46c0.39,1.55,1.29,3.58,3.36,4.84
		c-0.15-3.11-0.7-6.27-1.23-9.34C455.27,95.79,454.98,94.12,454.75,92.46z M453.5,84.5c0.18,0.12,0.39,0.23,0.62,0.31
		c0-0.3,0.01-0.61,0.03-0.92C453.94,84.11,453.72,84.31,453.5,84.5z M462.33,75.16c-0.92,0-1.93,0.51-2.78,1.4
		c-0.98,1.03-2.57,3.45-2.5,8.25c1.91-1.71,4.17-3.24,6.74-4.55c0.73-1.78,0.81-3.32,0.2-4.25
		C463.62,75.47,463.03,75.16,462.33,75.16z M439.24,77.29c-2.08,0.36-4.05,1.7-5.37,3.21C435.84,79.85,437.69,78.75,439.24,77.29z"
		/>
	<path class="st1" d="M455.48,109.23c-7.11-4.72-6.21-15.64-0.75-21.32c-0.01-0.11-0.02-0.23-0.03-0.34
		c-1.33-0.21-2.68-0.77-3.55-1.84c-5.3,4.09-17.74,5.23-20.62-2.19c-0.67,0.18-1.59,0.15-1.68-0.73c-0.08-0.93,0.93-1.03,1.63-1.1
		c0.92-3.61,4.8-5.79,8.15-6.8c1.11-0.28,2.65-0.38,3.44,0.64c2.19,3.07-7.15,7.54-9.6,7.68c3,5.55,13.63,4.19,17.84,0.73
		c-0.37-1.97,1.27-4.51,3.44-4.17c0.68,0.14,1.18,0.77,1.18,1.46c0.55-4.1,3.54-9.34,8.35-8.41c2.9,0.59,4.12,3.87,3.49,6.53
		c0,0,0,0,0,0c2.39-1.08,4.78-2.06,7.24-2.95c1.39-0.5,5.01-2.2,4.58,0.68c-0.91,2.02-2.91,3.46-3.58,5.6
		c1.58,1.72,5.9-0.78,7.6-1.71c0.8-0.52,1.59-1.05,2.29-1.7c0.39-0.58,1.18-0.9,1.76-0.39c1.11,1.07-0.78,2.32-0.42,3.57
		c0.39,0.89,1.63,0.77,2.43,0.69c3.43-0.67,6.2-2.82,8.77-5.03c0.51-0.55,1.55-0.76,1.89,0.08c0.17,1.39-0.85,2.7-1.27,4.01
		c2.67-2.49,11.07-9.59,10.72-1.51c0.03,1.22-0.26,2.85,0.84,3.68c0.66,0.57,2.23,0.12,2.11,1.34c-0.39,1.37-3.24,0.13-3.78-0.7
		c-1.56-1.81-0.3-4.43-1.05-6.44c0.01,0.02,0.02,0.03,0.03,0.05c-0.41-0.38-1.08,0.12-1.53,0.25c-2.4,1.19-4.39,3.04-6.4,4.78
		c-0.58,0.46-1.16,1.11-1.93,1.24c-2.25-0.01-0.83-2.74-0.34-3.89c-2.84,2.47-10.96,7.33-12.64,1.51c-2.85,1.63-6.52,3.72-9.81,2.27
		c-2.95-1.81,0.06-5,1.43-6.85c-3.48,1.34-6.93,2.7-10.22,4.39c-1.66,2.66-4.38,4.69-7.49,5.21c-0.43,0.44-0.87,0.87-1.27,1.34
		c0.14,1.44,0.37,2.73,0.58,4.11c-0.01-0.04-0.01-0.07-0.01-0.11c0.7,4.3,1.48,8.59,2.05,12.92
		C460.08,108.61,458.24,110.82,455.48,109.23z M457.27,107.59c0.02,0,0.03,0,0.05,0c-0.13-5.53-1.61-11.09-2.24-16.55
		C451.56,95.76,451.32,104.8,457.27,107.59z M456.57,85.66c0.11-0.01,0.21-0.01,0.32-0.02c2.15-2.04,4.64-3.68,7.29-5.01
		C467.91,72,455.89,71.95,456.57,85.66z M454.63,85.49c-0.04-1.19,0.05-2.39,0.21-3.57c-0.35,1.08-1.27,1.87-2.11,2.59
		C453.23,85.04,453.93,85.33,454.63,85.49z M432.62,81.35c3.04-0.64,5.85-2.36,7.9-4.66C437.45,76.6,434.22,78.79,432.62,81.35z"/>
	<path class="st1" d="M505.41,120.85c-1.48,0-2.99-0.13-4.48-0.39c-6.04-0.91-11.17-5.44-13.04-11.54
		c-1.01-3.1-2.24-9.02,0.83-13.81c4.12-5.54,10.94-6.24,16.43-6.24c2.05,0,4.1,0.11,6.08,0.21c1.48,0.08,2.89,0.15,4.24,0.18
		c-1.33-6.34,0.1-13.22,6.32-14.78c0.8-0.21,1.67-0.32,2.58-0.32c3.46,0,7.37,1.65,8.32,5.33c0.22,1.16-0.08,2.29-0.84,3.2
		c-0.95,1.14-2.5,1.85-4.04,1.85c-0.37,0-0.73-0.04-1.07-0.12c-1.64-0.35-2.53-1.73-3.32-2.95c-0.45-0.69-0.3-1.5,0.29-1.91
		c0.27-0.17,0.52-0.24,0.76-0.24c0.76,0,1.19,0.69,1.53,1.25c0.12,0.19,0.23,0.37,0.35,0.51c0.25,0.31,0.52,0.6,0.82,0.72
		c0.19,0.06,0.42,0.1,0.66,0.1c0.9,0,1.82-0.48,2.17-1.15c0.25-0.45,0.2-0.94-0.13-1.44c-1.07-1.62-3.11-2.59-5.45-2.59
		c-0.98,0-1.95,0.18-2.8,0.52c-3.63,1.54-4.78,5.63-3.39,12.17c0.65,0.04,1.14,0.22,1.45,0.55c0.26,0.27,0.39,0.64,0.37,1.06
		c-0.03,0.69-0.51,1.23-1.18,1.39c0.2,0.96,0.44,1.98,0.68,3.02c1.58,6.84,3.54,15.36-1.46,20.87
		C514.24,120.05,509.07,120.85,505.41,120.85z M506.16,92.13c-4.69,0-10,0.45-13.78,3.78c-4.08,4.57-2.41,12.23,1.26,17.09
		c3.35,4.26,8.88,4.89,11.87,4.89l0.43-0.01c5.07-0.19,8.5-1.53,10.46-4.1c3.58-4.68,1.75-12.63-0.02-20.33l-0.25-1.11
		c-0.27,0-0.54,0.01-0.81,0.01c-1.41,0-2.86-0.05-4.39-0.11C509.36,92.19,507.75,92.13,506.16,92.13z"/>
	<path class="st1" d="M501.01,119.97c-6.01-0.91-10.88-5.45-12.65-11.2c-1.4-4.3-1.76-9.44,0.77-13.4
		c6.03-8.11,18.13-5.69,26.96-5.62c-1.32-5.51-0.7-13.17,5.82-14.81c3.79-1.02,9.21,0.45,10.29,4.65c0.54,2.89-2.78,4.93-5.36,4.31
		c-1.48-0.32-2.31-1.64-3.07-2.81c-0.25-0.38-0.18-0.89,0.2-1.15c1.03-0.63,1.45,0.83,1.99,1.43c0.29,0.36,0.61,0.7,1.02,0.85
		c1.9,0.64,4.67-1.16,3.29-3.24c-1.83-2.77-5.92-3.44-8.85-2.26c-5.16,2.18-4.62,8.6-3.61,13.13c0.75-0.02,1.77,0.12,1.73,1.1
		c-0.03,0.66-0.67,1.05-1.29,0.95c1.46,7.37,5.16,17.73-0.55,24.02C513.42,120.16,506.74,120.95,501.01,119.97z M505.96,118.39
		c17.25-0.65,13.27-14.63,10.56-26.55c-7.79,0.2-18.17-1.85-24.47,3.7c-4.4,4.92-2.44,12.95,1.19,17.77
		c3.03,3.85,8.08,5.19,12.77,5.09C506.01,118.39,505.96,118.39,505.96,118.39z"/>
	<path class="st0" d="M546.37,91.8c-0.24,0-0.47-0.05-0.7-0.14l-0.1-0.06c-1.69-1.22-0.54-3.39,0.14-4.69l0.15-0.3
		c2.48-4.02,6.48-7.29,10.98-9c0.63-0.31,1.32-0.47,2.01-0.47c1.91,0,3.41,1.27,3.83,3.24c0.47,1.64,0.26,3.33,0.05,4.96
		c-0.06,0.46-0.11,0.91-0.15,1.35c1.47-0.55,2.74-1.5,4.08-2.51c0.83-0.63,1.69-1.27,2.6-1.81c0.54-0.35,1.28-0.76,2.07-0.76
		c0.41,0,0.8,0.11,1.14,0.34c1.61,1.37,1,3.59,0.51,5.37c-0.15,0.54-0.29,1.05-0.36,1.49c0.29,0.34,0.38,0.81,0.24,1.26
		c-0.19,0.59-0.7,0.99-1.28,0.99c-0.16,0-0.31-0.03-0.46-0.09c-0.77-0.25-1.09-0.72-1.21-1.06c-0.36-0.96-0.09-1.94,0.15-2.81
		c0.07-0.25,0.14-0.49,0.19-0.72c0,0,0.08-0.36,0.12-0.54c0.08-0.31,0.15-0.62,0.2-0.91c-0.48,0.32-1.05,0.75-1.68,1.22
		c-2.23,1.66-5,3.72-6.96,3.72c-0.97,0-2.17-0.49-2.36-2.85c0.03-0.68,0.13-1.32,0.24-2c0.15-0.93,0.29-1.88,0.26-2.75
		c-0.19,0.3-0.52,0.52-0.91,0.57c-3.46,0.29-5.98,2.81-8.41,5.24l-0.33,0.33c-0.36,0.28-0.72,0.73-1.1,1.2
		C548.49,90.64,547.55,91.8,546.37,91.8z M559.05,80.13c-1.09,0-2.39,0.48-3.71,1.23c1.11-0.51,2.29-0.86,3.58-0.98l0.13-0.01
		c0.21,0,0.4,0.06,0.57,0.16c-0.08-0.14-0.17-0.27-0.27-0.39C559.25,80.14,559.16,80.13,559.05,80.13z"/>
	<path class="st0" d="M545.86,91.2c-1.45-1.05-0.18-3.14,0.44-4.35c2.46-3.98,6.34-7.11,10.71-8.76c2.25-1.08,4.64-0.11,5.17,2.4
		c0.65,2.27-0.06,4.65-0.16,6.91c2.88-0.77,4.97-3.11,7.49-4.59c0.78-0.5,1.8-1.01,2.68-0.43c1.81,1.55,0.12,4.66-0.11,6.63
		c0.77,0.54,0.1,1.85-0.8,1.51c-0.39-0.13-0.77-0.35-0.91-0.76c-0.41-1.08,0.16-2.26,0.37-3.31c0,0.01,0,0.02-0.01,0.03
		c0,0.01-0.01,0.02-0.01,0.03c0.18-0.81,0.44-1.64,0.4-2.48c-2.42,1.13-10.56,9.31-11.06,2.97c0.13-2.34,1.31-5.38-0.47-7.31
		c-3.95-0.58-10.72,5.54-12.26,9.04c3.26-3.32,6.69-7.39,11.62-7.83c0.39-0.06,0.76,0.29,0.79,0.67c0.04,0.42-0.27,0.74-0.66,0.8
		c-3.78,0.31-6.49,3.19-9.02,5.71C548.91,88.96,547.52,91.89,545.86,91.2z"/>
	<path class="st0" d="M585.98,91.89c-0.16,0-0.33-0.01-0.49-0.02c-1.5-0.27-2.39-0.84-2.68-1.71c-0.59-1.74,1.4-4.04,3.11-5.94
		c-1.51,0.81-3.12,2.02-3.85,3.68c-0.06,0.59-0.57,1.09-1.19,1.14c-0.88-0.03-1.2-0.51-1.32-0.79c-0.36-0.87,0.18-2.12,0.71-2.69
		c2.53-3.18,6.44-5.16,10.45-5.26c2.48,0.01,4.23,0.94,4.82,2.54c0.65,1.77-0.26,4.07-2.33,5.84
		C591.56,90.14,588.95,91.89,585.98,91.89z M589.25,82.95c-0.32,0.57-0.99,1.32-1.81,2.23c-1.19,1.32-3.17,3.54-2.84,4.32
		c0.11,0.25,0.6,0.4,1.36,0.43v0c1.87-0.02,5.23-1.72,6.77-3.83c0.45-0.61,0.93-1.52,0.69-2.41c-0.45-0.64-1.21-0.95-2.33-0.95
		C590.45,82.75,589.79,82.85,589.25,82.95z"/>
	<path class="st0" d="M585.52,91.37c-5.69-1.03,0.65-6.37,2.26-8.54c-2.43,0.91-5.18,2.51-6.2,4.96c0,0.39-0.35,0.73-0.74,0.76
		c-1.44-0.05-0.84-1.95-0.2-2.64c2.42-3.04,6.21-5.01,10.1-5.11c5.35,0.02,5.8,4.38,2.16,7.5
		C590.88,90.07,588.27,91.55,585.52,91.37z M585.91,90.43c2.85,0.11,8.96-3.77,7.96-6.95c-1.05-1.61-3.36-1.29-4.97-0.97
		c-0.68,1.76-8.28,7.76-2.96,7.92C585.93,90.43,585.92,90.43,585.91,90.43z"/>
	<path class="st0" d="M596.85,72.93c-0.34,0-0.67-0.13-0.95-0.37c-0.38-0.31-0.65-0.71-0.82-1.22c-0.01-0.04-0.02-0.07-0.04-0.11
		l-0.11,0.05c-1.4,0.57-2.85,1.17-4.41,1.17c-0.23,0-0.46-0.01-0.69-0.04c-0.9-0.07-1.75-0.58-2.26-1.36
		c-0.48-0.73-0.59-1.61-0.32-2.41c0.34-1.13,0.97-2.14,1.57-3.12c0.26-0.42,0.53-0.85,0.77-1.29c-0.29-0.29-0.43-0.71-0.37-1.16
		c0.09-0.67,0.61-1.16,1.25-1.18c0.07-0.01,0.17-0.01,0.26-0.01c0.47,0,0.87,0.12,1.19,0.35c1.42,1.36,0.3,3.14-0.68,4.71
		c-0.55,0.88-1.11,1.78-1.18,2.46c0.17,0.07,0.36,0.1,0.58,0.1c0.64,0,1.4-0.28,2.07-0.52c0.28-0.1,0.54-0.19,0.77-0.27l0.29-0.14
		c0.55-0.27,1.18-0.57,1.87-0.57c0.24,0,0.48,0.04,0.71,0.11c1.15,0.33,1.54,1.49,1.73,2.39c0.33,0.43,0.39,0.96,0.17,1.46
		C598.01,72.55,597.44,72.93,596.85,72.93z"/>
	<path class="st0" d="M596.23,72.19c-0.33-0.27-0.53-0.59-0.67-0.99c-0.07-0.21-0.11-0.42-0.16-0.64c-1.75,0.7-3.58,1.59-5.5,1.36
		c-1.51-0.12-2.67-1.63-2.17-3.11c0.52-1.73,1.72-3.14,2.52-4.74c-0.84-0.27-0.65-1.63,0.24-1.67c0.4-0.04,0.81,0,1.15,0.24
		c1.85,1.79-2.33,5-2.07,7.1c0,0,0.01-0.02,0.01-0.02c1.14,0.76,2.9-0.17,4.04-0.51c0.8-0.36,1.66-0.9,2.57-0.6
		c0.94,0.27,1.26,1.29,1.43,2.14C598.45,71.65,597.15,72.99,596.23,72.19z"/>
	<path class="st0" d="M569.57,131.36c-1.3,0-2.38-0.04-3.18-0.08c-8.44-0.5-14.09-5.63-14.44-13.08c-0.98-1.53-0.65-2.91-0.01-3.7
		c0.58-0.71,1.45-1,2.17-0.7c0.55,0.22,1.43,0.95,1.2,3.32l-1-0.1c0.14-1.46-0.21-2.14-0.58-2.29c-0.3-0.13-0.71,0.04-1.01,0.41
		c-0.43,0.53-0.62,1.51,0.14,2.63l0.09,0.26c0.26,6.98,5.57,11.79,13.5,12.26c5.42,0.3,23.84,0.39,33.71-10.83
		c4.01-4.94,5.71-11.28,7.37-17.41l0.42-1.54c0.35-1.43,0.75-2.89,1.13-4.31c0.92-3.34,1.86-6.79,2.2-10.31
		c0.07-0.64-0.16-1.32-0.58-1.7c-0.29-0.26-0.64-0.34-1.04-0.25c-0.44,0.13-0.96,0.34-1.52,0.57c-2,0.81-4.75,1.92-6.35-0.36
		l-0.08-0.18c-0.13-0.62-0.05-1.56,1.07-2.57c1.77-1.59,5.66-2.71,7.43-2.13c1.19,0.27,1.99,1.22,2.7,2.05
		c0.13,0.16,0.26,0.31,0.4,0.46c0.11,0.13,0.25,0.15,0.33,0.16c0.16,0.01,0.28-0.04,0.38-0.13c0.32-0.32,0.19-0.64-0.65-1.52
		c-0.14-0.14-0.27-0.28-0.37-0.4c-1.06-1.18-2.56-1.81-4.34-1.81c0,0,0,0,0,0c-2.64,0-5.64,1.38-7.48,3.43
		c-0.57,0.64-0.81,1.51-0.66,2.4c0.15,0.92,0.68,1.7,1.45,2.13c2.19,1.3,4.83,0.45,7.35-0.65l0.7,0.52c-0.56,4.48-1.8,8.91-3,13.19
		c-0.53,1.91-1.08,3.88-1.57,5.83c-1.92,6.88-4.8,14.43-11.63,18.3c-6.27,3.99-23.62,8.68-33.11,4.36c-3.54-1.62-5.62-4.3-6.16-7.97
		l0.99-0.15c0.5,3.32,2.38,5.74,5.59,7.21c9.18,4.19,26.05-0.41,32.18-4.3c6.54-3.71,9.32-11.03,11.18-17.7
		c0.48-1.95,1.04-3.93,1.57-5.84c1.11-3.97,2.25-8.06,2.85-12.18c-2.44,0.98-5.13,1.63-7.44,0.26c-1.03-0.58-1.74-1.61-1.94-2.83
		c-0.2-1.19,0.13-2.37,0.9-3.23c2.02-2.25,5.32-3.77,8.22-3.77c0,0,0,0,0,0c2.07,0,3.83,0.74,5.09,2.15
		c0.1,0.12,0.22,0.24,0.34,0.37c0.61,0.63,1.74,1.81,0.62,2.93c-0.31,0.29-0.72,0.42-1.13,0.4c-0.41-0.02-0.77-0.2-1.02-0.5
		c-0.13-0.15-0.27-0.31-0.41-0.47c-0.67-0.78-1.3-1.52-2.21-1.73c-1.37-0.45-4.86,0.44-6.49,1.91c-0.58,0.52-0.84,1.03-0.78,1.53
		c1.07,1.4,2.79,0.85,5.09-0.08c0.58-0.24,1.13-0.46,1.64-0.6c0.73-0.17,1.42-0.01,1.95,0.47c0.66,0.59,1.02,1.59,0.91,2.55
		c-0.35,3.59-1.31,7.09-2.23,10.47c-0.39,1.41-0.78,2.86-1.13,4.29l-0.42,1.55c-1.68,6.23-3.42,12.68-7.57,17.8
		C592.22,129.99,577.2,131.36,569.57,131.36z"/>
	<path class="st0" d="M555.04,119.53c2.21,14.79,29.86,8.77,38.53,3.25c6.58-3.73,9.46-11.06,11.39-17.99
		c1.56-6.3,3.74-12.52,4.55-18.96c-2.41,1.05-5.35,2.08-7.8,0.63c-1.86-1.05-2.35-3.7-0.92-5.3c2.93-3.27,9.24-5.33,12.57-1.62
		c0.59,0.7,1.91,1.68,0.98,2.61c-0.4,0.36-1.06,0.34-1.42-0.07c-0.83-0.93-1.6-2.07-2.88-2.36c-2.11-0.69-8.43,1.43-7.86,4.12
		c1.75,2.51,5.15,0.23,7.35-0.4c1.48-0.35,2.38,1.17,2.23,2.48c-0.49,5.06-2.18,9.84-3.35,14.7c-1.81,6.64-3.46,13.7-7.89,19.15
		c-8.03,9.13-22.49,11.64-34.12,11c-7.44-0.44-13.68-4.86-13.97-12.74c-2.34-3.45,2.87-6.15,2.36-0.98"/>
	<path class="st0" d="M620.78,88.66c-0.35,0-0.62-0.02-0.82-0.07c-1.74-0.25-2.92-1.02-3.45-2.29c-1.86-4.46,5.06-13.77,8.78-18.76
		c0.59-0.8,1.08-1.45,1.39-1.9l0.09-0.13c1.6-2.31,3.11-4.5,3.88-7.07l0.04-0.17c0.11-0.48,0.22-0.97,0.06-1.32
		c-0.14-0.12-0.33-0.17-0.6-0.17c-0.27,0-0.57,0.05-0.87,0.11c-0.29,0.05-0.58,0.1-0.84,0.11c-1.6,0.29-3.5,0.7-4.87,1.83
		c-0.72,0.58-1.39,1.24-2.05,1.88l-0.41,0.4c-0.18,0.17-0.41,0.26-0.67,0.26c-0.28,0-0.55-0.12-0.74-0.32
		c-0.36-0.4-0.34-1.01,0.06-1.38l0.56-0.55c0.77-0.75,1.56-1.53,2.46-2.18c2.01-1.4,4.53-1.81,6.55-2.13
		c0.27-0.07,0.59-0.11,0.9-0.11c0.87,0,1.62,0.31,2.13,0.88c0.5,0.56,0.72,1.31,0.62,2.18c-1.02,4.98-4.03,9.08-6.94,13.04
		c-3,4.08-6.1,8.31-6.92,13.39c-0.12,0.49-0.09,0.81,0.08,1.03c0.26,0.34,0.9,0.51,1.85,0.51c2.85,0,7.47-1.6,8.74-2.16
		c0.36-0.21,0.84-0.48,1.35-0.48c0.43,0,0.8,0.2,1.06,0.58c0.27,0.53,0.24,1.02-0.04,1.49C630.8,87.37,623,88.66,620.78,88.66z"/>
	<path class="st0" d="M620.07,88.1c-9.76-1.39,4.46-18.47,7.02-22.19c1.62-2.33,3.24-4.64,4.04-7.34c0.14-0.63,0.35-1.35,0.03-1.94
		c-0.68-0.72-1.87-0.19-2.73-0.16c-1.81,0.32-3.73,0.76-5.17,1.94c-0.88,0.7-1.67,1.51-2.48,2.3c-0.19,0.18-0.51,0.16-0.68-0.03
		c-0.18-0.2-0.16-0.5,0.03-0.68c0.97-0.93,1.89-1.9,2.98-2.68c1.85-1.29,4.15-1.69,6.34-2.04c1.71-0.44,3.29,0.5,3.08,2.4
		c-2.04,9.9-12.22,16.26-13.86,26.4c-1.11,4.4,9.51,0.73,11.36-0.07c0.56-0.32,1.32-0.77,1.8-0.08
		C633.12,86.52,621.85,88.53,620.07,88.1z"/>
	<path class="st0" d="M634.47,83.48c-0.17,0-0.33-0.02-0.49-0.07c-2.02-0.72-1.44-2.81-1.06-4.2c0.05-0.17,0.09-0.34,0.14-0.5
		c-0.9-0.44-0.88-1.18-0.84-1.43c0.13-0.95,1.26-1.85,2.32-1.85c0.46,0,0.88,0.16,1.21,0.47c0.98,1.17,0.6,2.54,0.28,3.76
		c-0.09,0.33-0.18,0.66-0.23,0.96c0.46,0.34,0.67,0.85,0.54,1.4C636.16,82.82,635.32,83.48,634.47,83.48z"/>
	<path class="st0" d="M634.13,82.93c-1.95-0.69-0.74-3.12-0.49-4.54c-2.39-0.68,0.39-3.4,1.77-2.12c1.08,1.29,0,3.14-0.16,4.6
		C636.69,81.54,635.35,83.29,634.13,82.93z"/>
	<path class="st0" d="M679.9,89.71c-0.89,0-1.78-0.14-2.64-0.42c-2.09-0.63-3.46-1.74-4.08-3.29c-0.72-1.8-0.4-4.15,0.95-7.02
		c-1.09,0.7-2.15,1.46-3.2,2.2c-2.67,1.91-5.44,3.88-8.62,4.93l-0.1,0.02c-0.21,0.02-0.4,0.03-0.58,0.03c-0.96,0-1.65-0.3-2.04-0.9
		c-0.49-0.75-0.4-1.81-0.07-2.94c-4.71,4.13-8.66,5.05-11.25,5.05c-3.71,0-6.69-1.94-7.58-4.93c-0.92-3.08,0.6-6.27,4.06-8.55
		c2.46-1.61,5.4-1.94,8.21-2.06c0,0,0,0,0.01,0c0.94,0,1.66,0.65,1.73,1.47c0.04,0.44-0.11,0.88-0.4,1.21
		c-0.28,0.33-0.67,0.53-1.09,0.55l-0.67,0.04c-1.24,0.08-2.53,0.16-3.72,0.49c-1.96,0.45-4.39,2.18-4.96,4.21
		c-0.32,1.14,0.01,2.19,0.97,3.12c1.03,0.76,2.26,1.17,3.61,1.17c5.66,0,12.14-6.8,14.77-10.4c2.29-4.63,4.93-9.38,8.04-14.45
		c0.23-0.36,0.59-0.55,0.99-0.55c0.43,0,0.86,0.23,1.08,0.6c0.21,0.34,0.23,0.75,0.04,1.13l0,0.01c-0.74,1.48-1.41,3.03-2.06,4.53
		c-1.04,2.41-2.12,4.9-3.54,7.2c-2.33,3.33-4.03,6.79-5.08,10.3c2.1-1.04,4.06-2.39,5.96-3.71c1.47-1.02,2.99-2.07,4.58-2.98
		c0.34-0.16,0.67-0.39,1.03-0.63c0.78-0.52,1.66-1.11,2.59-1.11c0.44,0,0.85,0.13,1.22,0.39c1.12,0.95,0.53,2.35,0.17,3.18
		c-0.25,0.6-0.55,1.19-0.84,1.78c-0.72,1.44-1.46,2.94-1.53,4.49c0.2,2.4,3.15,2.6,4.05,2.6c0.98,0,1.96-0.19,2.71-0.52
		c1.61-0.77,2.92-2.14,4.18-3.45l0.66-0.68c0.26-0.3,0.63-0.49,1.04-0.49c0.58,0,1.14,0.37,1.39,0.91c0.23,0.5,0.14,1.06-0.23,1.5
		c-0.43,0.5-0.86,0.99-1.31,1.47C686.11,88.02,682.94,89.71,679.9,89.71z"/>
	<path class="st0" d="M677.41,88.82c-5.92-1.8-4.37-7.03-2.02-11.19c-4.46,2.55-8.33,6.39-13.24,8.01c-3.68,0.39-2.28-3.16-1.4-5.16
		c-14.45,14.47-26.4,0.85-15.73-6.17c2.36-1.55,5.21-1.86,7.96-1.98c0.61-0.04,1.17,0.4,1.22,1.02c0.05,0.6-0.41,1.18-1.02,1.22
		c-1.5,0.1-3.03,0.14-4.49,0.55c-3.45,0.79-7.54,4.93-4.2,8.17c6.29,4.69,15.54-4.4,19.13-9.3c2.46-4.95,5.18-9.77,8.06-14.48
		c0.46-0.72,1.63-0.09,1.24,0.69c0,0,0,0,0.01,0c-1.94,3.85-3.3,7.99-5.58,11.69c-2.45,3.51-4.35,7.36-5.44,11.48
		c4.18-1.83,7.62-4.91,11.56-7.17c1.28-0.61,2.86-2.36,4.31-1.37c0.8,0.69,0.32,1.79-0.02,2.58c-0.87,2.08-2.3,4.13-2.4,6.43
		c0.28,3.36,5.03,3.63,7.46,2.56c1.99-0.96,3.47-2.69,4.99-4.24c0.8-0.94,2.27,0.3,1.46,1.24c-0.42,0.49-0.85,0.98-1.29,1.46
		C685.47,88.02,681.46,90.13,677.41,88.82z"/>
	<path class="st0" d="M640.76,60.45c-0.48,0-0.92-0.26-1.14-0.68c-0.16-0.31-0.19-0.69-0.07-1.03c0.11-0.32,0.34-0.58,0.63-0.72
		l1.08-0.51c1.48-0.69,3.01-1.41,4.56-2.03c2.17-0.84,4-1.44,5.79-1.89c0.09-0.02,0.19-0.03,0.28-0.03c0.51,0,0.99,0.33,1.17,0.81
		c0.12,0.32,0.09,0.68-0.06,1c-0.15,0.3-0.39,0.51-0.7,0.61c-2.71,0.82-4.92,1.62-6.79,2.42c-1.4,0.62-2.79,1.27-4.18,1.93
		C641.16,60.4,640.96,60.45,640.76,60.45z"/>
	<path class="st0" d="M640.07,59.53c-0.19-0.37-0.06-0.88,0.33-1.06c1.86-0.87,3.71-1.77,5.62-2.53c1.87-0.73,3.77-1.38,5.73-1.87
		c0.35-0.09,0.73,0.13,0.86,0.47c0.13,0.37-0.06,0.83-0.44,0.95c-2.28,0.69-4.66,1.5-6.84,2.44c-1.41,0.63-2.8,1.28-4.2,1.93
		C640.74,60.04,640.27,59.92,640.07,59.53z"/>
	<path class="st0" d="M153.97,66.35c-0.34,0-0.65-0.08-0.9-0.25c-0.42-0.27-0.49-0.65-0.42-0.93c-0.62,0.16-1.23,0.36-1.86,0.58
		c-0.57,0.19-1.13,0.39-1.71,0.54c-0.1,0.03-0.23,0.05-0.37,0.05c-0.37,0-0.7-0.14-0.9-0.38c-0.17-0.2-0.22-0.45-0.15-0.69
		c0.08-0.27,0.3-0.48,0.6-0.58l1.02-0.32c1.12-0.36,2.27-0.73,3.48-1.01c0.41-0.12,0.86-0.19,1.3-0.19c1.15,0,2.01,0.44,2.21,1.13
		c0.1,0.34,0.11,0.99-0.92,1.64C154.94,66.2,154.43,66.35,153.97,66.35z"/>
	<path class="st0" d="M148.2,65.64c-0.14-0.17-0.04-0.38,0.22-0.47c1.47-0.46,2.91-0.96,4.46-1.32c2.11-0.63,4.03,0.53,2.22,1.67
		c-0.43,0.26-1.23,0.5-1.75,0.16c-0.62-0.41,0.19-1.02,0.94-0.76c0.2-0.1,0.63-0.42,0.22-0.52c0,0-0.01-0.01-0.01-0.01
		c-2.03,0.06-3.73,0.92-5.54,1.41C148.69,65.89,148.34,65.81,148.2,65.64z"/>
</g>
</svg>
